<svg width="50" height="50" viewBox="0 0 50 50" fill="none" xmlns="http://www.w3.org/2000/svg">
<path d="M49.4277 35.3822C47.509 35.025 46.0624 36.3049 44.2508 34.3977C43.7774 33.8997 43.0936 34.1804 42.8767 34.7869C41.3219 39.1401 38.0875 37.037 36.6055 33.9879C36.3184 33.3977 35.5055 33.4489 35.2066 33.9879C34.1822 36.6761 32.2098 37.0072 29.2887 34.9811C28.8248 34.5458 28.0637 34.6922 27.8893 35.3774C26.6176 40.3748 22.1737 39.0018 20.8046 34.8954C20.7357 34.6886 20.5874 34.5882 20.4334 34.5702C20.1219 34.152 19.4164 34.0267 19.1733 34.6132C17.422 38.8363 14.1713 38.1899 12.1481 34.6189C11.7829 33.9744 11.0289 34.1979 10.7895 34.8094C9.08793 39.1539 4.13 39.0541 4.21829 33.8317C4.22798 33.2533 3.42083 33.1397 3.28434 33.6962C1.68732 40.2047 9.11098 41.3334 11.6826 36.5559C14.3387 39.7961 18.3218 40.461 20.2214 36.1003C21.842 40.8829 27.1361 41.8236 29.1038 37.0648C31.6025 38.8557 33.9829 38.5744 35.8607 36.03C38.1509 39.5378 42.2317 40.8301 44.0433 36.5016C45.7058 37.7084 46.8087 36.8642 49.2142 37.071C50.112 37.1486 50.3171 35.548 49.4277 35.3822Z" fill="#00B2A0"/>
<path d="M48.6794 42.8015C47.8775 44.4048 47.6004 45.8417 45.8828 46.6253C43.7687 47.5907 41.6643 45.2873 40.6225 43.3987C40.263 42.7468 39.3911 42.6215 39.0554 43.3987C37.5837 46.8053 34.3245 45.9735 32.9337 42.6857C32.5919 41.8769 31.4356 42.0213 31.2935 42.9465C30.512 48.0432 27.0033 48.5826 24.6533 44.8885C24.9098 43.8939 23.5718 43.2169 23.2071 44.1905C21.2344 49.4566 17.3832 48.8682 15.148 44.1687C14.76 43.3531 13.8909 43.6392 13.6403 44.4085C11.8237 49.9875 8.99423 47.3336 7.40646 43.4934C7.09723 42.7451 6.21529 43.0043 6.02886 43.7125C5.16116 47.0109 3.73164 47.6267 1.32335 48.48C0.869818 48.641 0.939871 49.5989 1.43861 49.5181C4.19801 49.0704 5.70511 48.4728 6.83293 45.9718C9.14996 50.3754 12.3847 51.2749 14.5552 46.6413C17.3695 50.9291 21.8906 51.4179 24.1306 46.3165C26.6187 50.4359 30.7914 50.2331 32.4624 45.7442C34.6181 48.839 37.7556 49.2738 39.9264 45.8104C43.1569 49.7636 49.7639 50.6485 49.9995 43.2377C50.0288 42.3538 49.0341 42.0919 48.6794 42.8015Z" fill="#00B2A0"/>
<path d="M15.8383 7.35779C15.261 7.52826 15.0334 7.96803 15.051 8.41204C10.9605 9.0253 8.31237 13.1205 7.99632 17.2396C7.5641 22.8753 12.2819 26.1859 17.3971 25.7654C22.6272 25.3359 26.0296 20.5906 25.8759 15.4907C25.7222 10.3969 20.9665 5.8408 15.8383 7.35779ZM16.6899 23.189C12.9357 23.5016 10.5071 20.9291 10.5789 17.2396C10.6543 13.3726 13.5744 10.8225 16.9595 9.80299C17.0214 9.78425 17.0661 9.75221 17.1165 9.7238C20.4163 10.2461 22.912 11.5201 23.2626 15.4901C23.6266 19.6083 20.6466 22.859 16.6899 23.189Z" fill="#00B2A0"/>
<path d="M11.0793 7.18745C10.4636 6.50769 9.78141 5.91044 9.08289 5.32105C8.39032 4.7365 7.65575 3.60548 6.67931 3.69797C6.16219 3.74693 5.81189 4.07971 5.77584 4.61469C5.70733 5.62995 6.6939 6.12867 7.41149 6.64642C8.23185 7.23792 9.08408 7.76716 9.84545 8.43967C10.6902 9.18623 11.8463 8.03405 11.0793 7.18745Z" fill="#00B2A0"/>
<path d="M5.41808 10.2447C5.74634 10.2849 5.45621 10.2366 5.36952 10.2091C5.23637 10.1665 5.1059 10.1154 4.97573 10.0646C4.82828 10.0075 4.68232 9.94582 4.53666 9.88416C4.52683 9.87993 4.52146 9.87781 4.50687 9.87116C4.36806 9.60065 4.12946 9.38272 3.82234 9.2851C3.27395 9.11009 2.43989 8.69208 1.84711 8.88099C1.512 8.98799 1.1608 9.26938 1.09557 9.64357C1.09557 9.64357 1.09527 9.64508 1.09527 9.64568C1.03331 10.0002 1.06012 10.4615 1.372 10.7081C1.54566 10.8447 1.74881 10.9414 1.9606 11.0248C1.78903 11.0242 1.92754 11.0324 2.08274 11.069C2.19265 11.1074 2.30108 11.1467 2.41427 11.1772C2.68713 11.2703 2.95969 11.3649 3.23106 11.4613C3.38685 11.5172 3.5474 11.522 3.7026 11.4936C4.26052 11.6442 4.87147 11.8146 5.41837 11.7808C6.41269 11.7191 6.3701 10.3617 5.41808 10.2447Z" fill="#00B2A0"/>
<path d="M3.7143 18.8812C3.29668 19.2363 2.80935 19.5147 2.33453 19.7816C2.08908 19.9197 1.83529 20.0627 1.57226 20.1633C1.41468 20.2235 1.16387 20.173 1.5106 20.2374C1.33843 20.2056 1.17519 20.2023 1.00391 20.1836C-0.439905 20.0255 -0.308541 22.6708 1.28302 22.2767C1.86925 22.1316 2.46828 21.5639 2.96663 21.2003C3.54481 20.7787 4.1221 20.3178 4.5987 19.7786C5.14352 19.1626 4.32823 18.3586 3.7143 18.8812Z" fill="#00B2A0"/>
<path d="M7.39364 24.1238C6.90452 24.8854 6.4586 25.6749 5.99331 26.4514C5.48901 27.2926 4.63469 27.9197 4.52269 28.9262C4.4512 29.5688 5.14466 29.8871 5.65671 29.8027C6.70375 29.6305 7.21461 28.2782 7.59739 27.4023C7.99237 26.4985 8.23514 25.5507 8.55149 24.6186C8.79456 23.9007 7.76986 23.5374 7.39364 24.1238Z" fill="#00B2A0"/>
<path d="M17.2891 26.8615C17.1861 26.3238 16.3666 26.3495 16.2466 26.8615C15.9314 28.2074 15.5624 29.5418 15.2529 30.889C15.1781 31.2142 15.2424 31.5905 15.4965 31.8244C15.4548 31.7679 15.4596 31.7791 15.5105 31.8574C15.8135 32.3597 16.45 32.3023 16.764 31.8574C16.4771 32.2636 16.9671 31.6606 16.9847 31.6298C17.1003 31.4294 17.1101 31.219 17.1223 30.9941C17.148 30.5287 17.2019 30.0644 17.2457 29.6005C17.3317 28.6958 17.4619 27.7619 17.2891 26.8615Z" fill="#00B2A0"/>
<path d="M28.171 27.6565C27.4219 26.5659 26.2322 25.8659 25.5512 24.7398C25.085 23.9684 24.0174 24.6403 24.3776 25.4358C24.6897 26.1253 25.1666 26.6977 25.659 27.262C25.8941 27.5313 26.1347 27.7943 26.3415 28.0869C26.6236 28.4861 26.7394 28.9347 27.2893 29.0124C27.6057 29.0571 27.9667 28.9936 28.1264 28.6663C28.1413 28.6361 28.1561 28.6058 28.1707 28.5753C28.3072 28.2966 28.3596 27.9312 28.171 27.6565Z" fill="#00B2A0"/>
<path d="M32.5295 19.52C31.2686 19.5874 30.0074 19.6521 28.7465 19.7159C27.6119 19.7733 27.6119 21.4447 28.7465 21.5025C30.0077 21.5666 31.2686 21.6312 32.5295 21.698C33.9141 21.7721 33.9141 19.4466 32.5295 19.52Z" fill="#00B2A0"/>
<path d="M32.53 6.95978C31.3862 6.9356 30.4616 8.32958 29.7762 9.13931C29.0395 10.0092 28.3922 10.9519 27.6413 11.8103C27.0676 12.4662 27.952 13.3744 28.5915 12.7745C29.3487 12.0636 30.0362 11.2823 30.763 10.5402C31.1735 10.1213 31.5983 9.69938 32.0642 9.34363C32.637 8.90688 33.0871 8.76512 33.3418 8.04063C33.5309 7.50293 33.0442 6.97066 32.53 6.95978Z" fill="#00B2A0"/>
<path d="M27.0341 1.27088C26.357 1.71156 25.9054 2.42729 25.4402 3.08166C24.8977 3.84454 24.3821 4.61105 23.7548 5.30683C23.0443 6.0948 24.1494 7.22854 24.9123 6.48137C25.5045 5.90105 26.0288 5.26844 26.5426 4.61679C27.0943 3.91739 27.8056 3.27692 28.2596 2.51404C28.7153 1.74874 27.7979 0.773984 27.0341 1.27088Z" fill="#00B2A0"/>
<path d="M18.5751 0.222154C18.245 -0.0740513 17.8131 -0.0740513 17.483 0.222154C16.8352 0.803683 17.1339 1.81894 17.1878 2.593C17.2498 3.48102 17.3162 4.36812 17.3958 5.25492C17.4699 6.08188 18.5882 6.08188 18.6623 5.25492C18.7419 4.36782 18.8083 3.48132 18.8703 2.593C18.9242 1.81924 19.2229 0.803381 18.5751 0.222154Z" fill="#00B2A0"/>
</svg>
